<svg width="46" height="42" viewBox="0 0 46 42" fill="none" xmlns="http://www.w3.org/2000/svg">
<path d="M23 21C19.8375 21 17.1302 19.9719 14.8781 17.9156C12.626 15.8594 11.5 13.3875 11.5 10.5C11.5 7.6125 12.626 5.14063 14.8781 3.08438C17.1302 1.02813 19.8375 0 23 0C26.1625 0 28.8698 1.02813 31.1219 3.08438C33.374 5.14063 34.5 7.6125 34.5 10.5C34.5 13.3875 33.374 15.8594 31.1219 17.9156C28.8698 19.9719 26.1625 21 23 21ZM0 42V34.65C0 33.1625 0.419271 31.7953 1.25781 30.5484C2.09635 29.3016 3.21042 28.35 4.6 27.6938C7.57083 26.3375 10.5896 25.3203 13.6562 24.6422C16.7229 23.9641 19.8375 23.625 23 23.625C26.1625 23.625 29.2771 23.9641 32.3438 24.6422C35.4104 25.3203 38.4292 26.3375 41.4 27.6938C42.7896 28.35 43.9036 29.3016 44.7422 30.5484C45.5807 31.7953 46 33.1625 46 34.65V42H0ZM5.75 36.75H40.25V34.65C40.25 34.1688 40.1182 33.7313 39.8547 33.3375C39.5911 32.9437 39.2438 32.6375 38.8125 32.4188C36.225 31.2375 33.6135 30.3516 30.9781 29.7609C28.3427 29.1703 25.6833 28.875 23 28.875C20.3167 28.875 17.6573 29.1703 15.0219 29.7609C12.3865 30.3516 9.775 31.2375 7.1875 32.4188C6.75625 32.6375 6.40885 32.9437 6.14531 33.3375C5.88177 33.7313 5.75 34.1688 5.75 34.65V36.75ZM23 15.75C24.5812 15.75 25.9349 15.2359 27.0609 14.2078C28.187 13.1797 28.75 11.9438 28.75 10.5C28.75 9.05625 28.187 7.82031 27.0609 6.79219C25.9349 5.76406 24.5812 5.25 23 5.25C21.4188 5.25 20.0651 5.76406 18.9391 6.79219C17.813 7.82031 17.25 9.05625 17.25 10.5C17.25 11.9438 17.813 13.1797 18.9391 14.2078C20.0651 15.2359 21.4188 15.75 23 15.75Z" fill="black" fill-opacity="0.81"/>
</svg>
