<svg width="62" height="61" viewBox="0 0 62 61" fill="none" xmlns="http://www.w3.org/2000/svg">
<g filter="url(#filter0_d_45_55)">
<path d="M35.4692 48.125C35.015 48.8196 34.3631 49.3961 33.5788 49.7968C32.7944 50.1976 31.9051 50.4085 31 50.4085C30.0949 50.4085 29.2056 50.1976 28.4212 49.7968C27.6369 49.3961 26.985 48.8196 26.5308 48.125M46.5 18.3333C46.5 14.6866 44.867 11.1892 41.9602 8.61062C39.0533 6.03199 35.1109 4.58334 31 4.58334C26.8891 4.58334 22.9467 6.03199 20.0398 8.61062C17.133 11.1892 15.5 14.6866 15.5 18.3333C15.5 34.375 7.75 38.9583 7.75 38.9583H54.25C54.25 38.9583 46.5 34.375 46.5 18.3333Z" stroke="#1E1E1E" stroke-width="4" stroke-linecap="round" stroke-linejoin="round"/>
</g>
<defs>
<filter id="filter0_d_45_55" x="-4" y="0" width="70" height="63" filterUnits="userSpaceOnUse" color-interpolation-filters="sRGB">
<feFlood flood-opacity="0" result="BackgroundImageFix"/>
<feColorMatrix in="SourceAlpha" type="matrix" values="0 0 0 0 0 0 0 0 0 0 0 0 0 0 0 0 0 0 127 0" result="hardAlpha"/>
<feOffset dy="4"/>
<feGaussianBlur stdDeviation="2"/>
<feComposite in2="hardAlpha" operator="out"/>
<feColorMatrix type="matrix" values="0 0 0 0 0 0 0 0 0 0 0 0 0 0 0 0 0 0 0.25 0"/>
<feBlend mode="normal" in2="BackgroundImageFix" result="effect1_dropShadow_45_55"/>
<feBlend mode="normal" in="SourceGraphic" in2="effect1_dropShadow_45_55" result="shape"/>
</filter>
</defs>
</svg>
