<svg width="63" height="55" viewBox="0 0 63 55" fill="none" xmlns="http://www.w3.org/2000/svg">
<path d="M60.375 43.5417C60.375 44.7572 59.8219 45.923 58.8373 46.7826C57.8527 47.6421 56.5174 48.125 55.125 48.125H7.875C6.48261 48.125 5.14726 47.6421 4.16269 46.7826C3.17812 45.923 2.625 44.7572 2.625 43.5417V18.3333C2.625 17.1178 3.17812 15.952 4.16269 15.0924C5.14726 14.2329 6.48261 13.75 7.875 13.75H18.375L23.625 6.875H39.375L44.625 13.75H55.125C56.5174 13.75 57.8527 14.2329 58.8373 15.0924C59.8219 15.952 60.375 17.1178 60.375 18.3333V43.5417Z" stroke="#1E1E1E" stroke-width="4" stroke-linecap="round" stroke-linejoin="round"/>
<path d="M31.5 38.9583C37.299 38.9583 42 34.8543 42 29.7917C42 24.7291 37.299 20.625 31.5 20.625C25.701 20.625 21 24.7291 21 29.7917C21 34.8543 25.701 38.9583 31.5 38.9583Z" stroke="#1E1E1E" stroke-width="4" stroke-linecap="round" stroke-linejoin="round"/>
</svg>
